<?xml version="1.0" standalone="no"?>
<!DOCTYPE svg PUBLIC "-//W3C//DTD SVG 20010904//EN"
 "http://www.w3.org/TR/2001/REC-SVG-20010904/DTD/svg10.dtd">
<svg version="1.0" xmlns="http://www.w3.org/2000/svg"
 width="308.000000pt" height="304.000000pt" viewBox="0 0 308.000000 304.000000"
 preserveAspectRatio="xMidYMid meet">

<g transform="translate(0.000000,304.000000) scale(0.100000,-0.100000)"
fill="#000000" stroke="none">
<path d="M2780 3031 c0 -6 -8 -11 -18 -11 -19 0 -69 -49 -141 -138 -61 -75
-79 -82 -108 -46 -13 16 -23 34 -23 40 0 12 -42 54 -54 54 -9 0 -3 -49 9 -87
6 -18 2 -25 -19 -33 -14 -5 -26 -11 -26 -13 0 -3 9 -25 20 -50 30 -68 22 -77
-72 -77 -75 0 -81 -2 -109 -29 -24 -25 -29 -38 -29 -78 0 -27 6 -73 14 -103 8
-30 13 -56 12 -58 -2 -1 -16 3 -32 9 -136 53 -351 62 -474 18 -81 -28 -165
-77 -255 -147 -94 -74 -215 -130 -297 -138 -78 -8 -70 3 32 41 162 60 207 91
246 168 14 26 40 65 59 86 19 21 35 44 35 50 0 21 -35 11 -73 -20 -21 -17 -40
-30 -42 -27 -2 2 0 21 5 43 5 22 10 75 10 118 0 62 -3 79 -16 84 -22 8 -31 -9
-38 -81 -4 -33 -10 -71 -13 -83 -6 -26 -23 -31 -23 -8 0 33 -61 135 -81 135
-4 0 -1 -26 7 -57 31 -127 32 -124 -10 -75 -38 43 -76 56 -76 26 0 -9 16 -38
35 -64 19 -26 35 -51 35 -54 0 -4 -16 -4 -35 0 -44 8 -47 -11 -8 -42 l27 -21
-40 -13 c-21 -7 -81 -35 -132 -62 -117 -61 -147 -62 -228 -9 -69 45 -138 115
-219 221 -126 166 -155 189 -360 294 -149 76 -179 85 -216 66 -73 -39 -58
-154 53 -405 25 -55 51 -116 58 -135 20 -50 49 -91 111 -157 95 -99 205 -200
320 -290 70 -56 91 -87 109 -168 25 -108 8 -287 -31 -326 -17 -17 -28 -19 -71
-13 l-51 7 7 -26 6 -27 -58 6 c-45 5 -60 3 -70 -9 -11 -13 -10 -18 10 -31 13
-8 35 -16 50 -18 46 -6 41 -14 -22 -31 -33 -10 -70 -27 -81 -38 -20 -20 -21
-22 -4 -31 12 -8 40 -2 101 18 45 16 87 25 91 20 4 -4 -11 -43 -34 -87 -41
-76 -53 -119 -34 -119 16 0 39 28 88 110 26 44 51 80 55 80 5 0 8 -27 8 -59 0
-33 5 -63 11 -66 15 -10 20 -2 26 47 7 49 30 99 77 166 70 99 96 235 72 384
l-7 48 45 -20 c25 -10 76 -28 113 -39 271 -78 403 -65 618 62 110 64 203 107
319 147 112 39 129 37 87 -10 -70 -79 -86 -110 -84 -164 1 -28 11 -78 22 -110
26 -73 28 -134 4 -143 -15 -6 -65 4 -105 22 -30 12 -21 -21 13 -49 25 -21 28
-27 14 -32 -17 -7 -92 19 -140 48 -39 23 -47 23 -43 -4 2 -16 22 -31 75 -57
40 -20 73 -40 73 -46 0 -5 -46 -37 -102 -70 -58 -35 -108 -71 -115 -85 -7 -15
-31 -31 -65 -43 -106 -40 -224 -131 -288 -223 -51 -73 -92 -190 -97 -279 -15
-237 117 -433 371 -550 142 -66 270 -77 429 -36 197 51 337 170 444 376 65
125 84 213 84 382 l0 142 28 6 c54 12 177 93 234 154 72 79 102 129 131 227
72 243 19 452 -181 711 -66 85 -133 149 -224 212 -49 34 -54 41 -91 141 -22
58 -40 112 -41 120 -3 20 49 25 113 11 34 -7 58 -7 79 0 18 6 102 12 188 13
160 1 192 9 136 35 -16 7 -78 16 -138 20 -61 4 -116 10 -123 15 -18 11 -15 46
7 82 14 23 39 40 93 62 74 31 282 77 299 66 5 -3 18 5 28 18 18 21 18 24 3 39
-11 10 -23 13 -32 8 -25 -13 -211 -50 -221 -43 -6 3 -17 0 -26 -8 -9 -7 -43
-21 -77 -31 -34 -10 -69 -20 -78 -24 -33 -10 -19 23 22 56 22 18 38 36 35 41
-3 4 11 27 30 51 20 23 40 50 46 61 5 10 14 16 20 13 5 -4 9 -3 10 2 0 4 2 16
4 25 2 10 -1 20 -6 24 -5 3 -9 0 -9 -5z m-283 -1229 c64 -41 95 -77 133 -152
41 -81 56 -169 41 -242 -15 -71 -74 -164 -131 -206 -50 -37 -70 -40 -70 -12 0
24 -44 125 -58 134 -14 8 -22 -17 -16 -51 16 -85 20 -124 13 -128 -25 -16
-232 -3 -255 16 -14 11 -23 77 -30 207 -2 52 -8 101 -13 110 -5 9 -16 38 -25
64 -23 70 -11 96 84 169 24 18 71 59 103 89 33 30 66 58 75 61 22 8 84 -16
149 -59z m-417 -548 c6 -14 10 -41 10 -59 l0 -34 -52 6 c-29 3 -54 7 -56 9
-11 9 62 104 80 104 5 0 13 -12 18 -26z m-165 -35 c-3 -23 -6 -43 -7 -44 -2
-1 -34 -5 -73 -8 -56 -5 -66 -3 -52 6 11 7 42 29 70 50 28 20 54 37 58 37 5 0
6 -19 4 -41z m-63 -274 c3 -3 -1 -29 -9 -57 -16 -64 -16 -81 -1 -76 6 2 21 29
32 60 12 31 24 59 27 62 3 4 46 -1 95 -11 94 -17 371 -24 433 -10 l34 7 -6
-111 c-10 -167 -46 -272 -144 -421 -84 -127 -210 -212 -363 -244 -150 -32
-264 -5 -423 99 -127 83 -180 180 -179 329 1 193 82 298 270 354 71 21 220 33
234 19z"/>
</g>
</svg>
