<svg xmlns="http://www.w3.org/2000/svg" fill="none" viewBox="6 2 20.43 28.02"><path d="m19.93 5.03c0-.81-.57-1.48-1.32-1.65-.13-.03-.24-.12-.29-.24-.23-.67-.86-1.14-1.6-1.14s-1.36.47-1.6 1.13c-.04.13-.15.21-.28.24-.76.17-1.32.85-1.32 1.66s.57 1.48 1.32 1.65c.13.03.24.12.29.24.23.66.86 1.13 1.6 1.13s1.36-.47 1.6-1.13c.04-.13.16-.22.29-.24.74-.17 1.31-.85 1.31-1.65z" fill="#f9c23c"/><path d="m19.0618 5.25223c.3081-.25772.7059-.41226 1.1383-.41226.77 0 1.43.49 1.67 1.18.05.14.16.23.3.26.8.18 1.39.88 1.39 1.73s-.59 1.55-1.39 1.73c-.14.03-.25.13-.3.26-.24.69003-.9 1.18003-1.67 1.18003-.631 0-1.1881-.3291-1.5008-.8276-.2722.1879-.6017.2976-.9593.2976-.74 0-1.37-.47-1.6-1.13001-.05-.12-.16-.21-.29-.24-.0927-.02103-.1827-.0497-.2692-.08534-.2447.26832-.5714.46222-.9407.54532-.14.03-.25.13-.3.26-.24.69003-.9 1.18003-1.67 1.18003s-1.43-.49-1.67-1.18003c-.04-.14-.16-.23-.3-.26-.79003-.18-1.38003-.88-1.38003-1.73s.59-1.55 1.38003-1.73c.14-.03.26-.12.3-.26.25-.69.9-1.18 1.68-1.18.77 0 1.43.49 1.67 1.18.05.14.16.23.3.26.1376.03096.269.07732.3923.13719.2188-.21337.4939-.36739.7976-.43717.13-.02.25-.11.29-.24.24-.66.86-1.13 1.6-1.13.5401 0 1.0216.25037 1.3318.64224z" fill="#fcd53f"/><path d="m19.5299 8.42004c.6546 0 1.2297.35415 1.5349.88426.3206-.45153.85-.74424 1.4451-.74424.77 0 1.43.49 1.67 1.18.05.14.16.23.3.26004.8.18 1.39.88 1.39 1.73 0 .84-.59 1.55-1.39 1.73-.14.03-.25.13-.3.26-.24.69-.9 1.18-1.67 1.18-.6546 0-1.2297-.3542-1.5348-.8843-.3206.4515-.85.7442-1.4452.7442-.7388 0-1.3763-.4511-1.6388-1.0971-.2008.106-.4243.1749-.6611.1971-.76.07-1.44-.34-1.75-.97-.32.63-.99 1.04-1.75.97-.4158-.0396-.7925-.2238-1.0765-.5016-.1.043-.2048.0772-.3135.1017-.14.03-.25.13-.3.26-.24.69-.9 1.18-1.67 1.18-.76999 0-1.42999-.49-1.66999-1.18-.05-.14-.16-.23-.3-.26-.8-.18-1.39-.88-1.39-1.73s.6-1.56 1.39-1.73c.14-.03004.25-.13004.3-.26004.24-.69.9-1.18 1.66999-1.18.78 0 1.43.49 1.67 1.18.05.14.16.23.3.26004.3341.0751.6316.241.8647.4706.0443-.0186.0894-.0355.1353-.0507.19-.06.34-.21.41-.4.23-.71996.89-1.22996 1.68-1.22996.78 0 1.44.5 1.68 1.2.0034.01106.007.02196.011.03266.137-.07228.2843-.12743.4389-.16266.14-.03.25-.13.3-.26.24-.69.9-1.18 1.67-1.18z" fill="#fff478"/><path d="m13.7401 14.13c-.06-1.39 1.06-2.55 2.45-2.55s2.5 1.16 2.45 2.55l3.75-.54c.09-1.05.96-1.86 2.02-1.86 1.24 0 2.19 1.11 1.99 2.34l-2.33 14.75c-.11.69-.71 1.2-1.41 1.2h-1.57l-1.4074-4.2157-1.6626 4.2057h-3.66l-1.2862-3.3039-1.7438 3.3139h-1.56998c-.7 0-1.3-.51-1.41-1.2l-2.33-14.75c-.19-1.23.76-2.34 2-2.34 1.06 0 1.94.81 2.00998 1.86z" fill="#f8312f"/><g fill="#f4f4f4"><path d="m11.2801 30.02-1.28998-16.28c-.09-1.09.76998-2.01 1.84998-2.01 1 0 1.82.79 1.86 1.79l.66 16.5z"/><path d="m18.02 30.02.65-16.5c.04-1 .86-1.79 1.86-1.79 1.09 0 1.95.93 1.86 2.01l-1.29 16.28z"/></g></svg>